<svg id="Capa_1" enable-background="new 0 0 496.991 496.991" height="512" viewBox="0 0 496.991 496.991" width="512" xmlns="http://www.w3.org/2000/svg"><g><g><path d="m220.289 336.471-23.086-10.361-145.413.098-23.943 12.435c-16.22 7.24-25.123 21.506-25.123 39.266l-1.012 53.504c0 7.18 5.82 13 13 13l5.288 1.945 213.839.184c7.18.006 13.005-5.809 13.011-12.989l.048-55.973c.016-17.752-10.407-33.854-26.609-41.109z" fill="#ccf49f"/><path d="m69.49 326.138-.6 4.15c-.22 1.53-.63 2.99-1.21 4.38-1.76 4.21-5.07 7.67-9.34 9.57l-23.52 10.49c-9 4.02-14.82 12.99-14.82 22.84v68.79h-2l-5 .09c-7.18 0-13-5.82-13-13v-55.88c0-17.76 10.45-33.86 26.67-41.1l23.02-10.26h2.1l.14-.07z" fill="#b3e59f"/><path d="m128.46 322.142 33.842-17.636-2.226-23.869-3.638-6.575.356-14.334-67.574.276-.838 26.254-3.222 19.217 33.528 16.813z" fill="#f6d190"/><path d="m207.148 167.948c9.903 0 18.001 7.639 18.001 17.538 0 21.802-21.834 31.09-35.493 31.09h-132.535c-13.659 0-35.131-9.289-35.131-31.09 0-9.899 7.736-17.538 17.639-17.538l87.948-8.399z" fill="#ecbd83"/><path d="m160.06 280.638-2.99-32.19-49.97 2.172v-.002l-19.04.83-2.9 54.03 18.43 10.62 1.248-23.277c.132-2.463 2.432-4.181 4.849-3.693 4.604.929 9.233 1.39 13.823 1.39 12.7 0 25.22-3.46 36.55-9.88z" fill="#ecbd83"/><path d="m196.522 167.948c0 78.368-40.649 107.572-73.014 107.572-31.511 0-72.159-29.204-72.159-107.572l36.382-87.534h71.687z" fill="#f6d190"/><g><g><path d="m168.108 393.233c-4.143 0-7.5-3.358-7.5-7.5v-49.476c0-4.142 3.357-7.5 7.5-7.5s7.5 3.358 7.5 7.5v49.476c0 4.143-3.357 7.5-7.5 7.5z" fill="#e8e8e8"/></g><g><path d="m78.872 393.233c-4.143 0-7.5-3.358-7.5-7.5v-49.476c0-4.142 3.357-7.5 7.5-7.5s7.5 3.358 7.5 7.5v49.476c0 4.143-3.357 7.5-7.5 7.5z" fill="#e8e8e8"/></g></g><path d="m194.459 310.015c-1.213-7.115-8.002-11.87-15.106-10.575-13.451 2.452-39.807 14.131-50.847 19.196-3.243 1.488-6.953 1.553-10.247.183-10.55-4.216-30.413-12.868-45.139-17.684 0 0-3.057-.016-4.798-.501-7.11-1.29-13.9 3.47-15.11 10.59l-1.423 14.985c3.696 1.932 8.134 5.032 15.892 8.455 19.294 8.514 46.158 19.006 55.77 18.375 19.769 0 73.751-26.928 73.751-26.928z" fill="#f8f7f7"/><path d="m73.12 301.138-3.63 25-.6 4.15c-.22 1.53-.63 2.99-1.21 4.38-7.76-3.43-14.29-6.53-17.99-8.46l2.76-16.18c1.21-7.12 8-11.88 15.11-10.59 1.74.49 3.6 1.06 5.56 1.7z" fill="#e8e8e8"/><g><path d="m162.71 378.909 1-1h10.797c5.523 0 10 4.477 10 10v12.4l-1 1c0 5.523-4.477 10-10 10h-10.797c-5.523 0-10-4.477-10-10v-12.399c0-5.524 4.477-10.001 10-10.001z" fill="#b3e59f"/><path d="m184.51 400.308v2c0 5.523-4.477 10-10 10h-12.8c-5.523 0-10-4.477-10-10v-14.4c0-5.523 4.477-10 10-10h2v19.4c0 1.657 1.343 3 3 3z" fill="#95d6a4"/></g><g><path d="m73.471 378.909 1-1h10.797c5.523 0 10 4.477 10 10v12.4l-1 1c0 5.523-4.477 10-10 10h-10.797c-5.523 0-10-4.477-10-10v-12.399c0-5.524 4.477-10.001 10-10.001z" fill="#b3e59f"/><path d="m95.271 400.308v2c0 5.523-4.477 10-10 10h-12.8c-5.523 0-10-4.477-10-10v-14.4c0-5.523 4.477-10 10-10h2v19.4c0 1.657 1.343 3 3 3z" fill="#95d6a4"/></g><path d="m66.106 111.446h112.671v29.254h-112.671z" fill="#e5646e"/><path d="m87.428 96.376v44.173c0 3.851-2.025 7.418-5.331 9.392l-27.679 16.21-3.069.847-10.215.186.116-57.985c1.409-16.104 9.711-36.985 34.354-49.242 5.309-2.641 10.024-4.408 16.339-5.795 9.026-1.983 19.484-3.538 31.509-3.538 1.311 0 2.601-.163 3.869-.139 18.495.345 32.482 3.215 44.772 8.754 19.698 8.877 32.953 27.819 34.585 49.356l-.315 59.355h-9.842l-31.488-16.92c-3.497-1.922-5.669-5.596-5.669-9.586v-45.074c0-8.088-6.557-14.645-14.645-14.645h-42.642c-8.089.001-14.649 6.56-14.649 14.651z" fill="#ff8086"/><path d="m129.99 50.558c-16.78.55-29.9 3.07-41.18 8.68-24.64 12.26-33.17 33.25-34.58 49.35l.188 57.563-3.069 1.797h-10.919l-.2-59.36c1.41-16.1 9.94-37.09 34.58-49.35 12.9-6.42 28.2-8.79 48.64-8.79 2.24 0 4.42.03 6.54.11z" fill="#e5646e"/></g><g><path d="m417.886 300.753 39.053-3.634c5.365-.499 9.938-4.098 11.6-9.18 12.692-38.811 22.312-87.917 7.676-127.735-6.382-17.36-26.788-56.055-79.313-58.998-2.095-.117-4.393.795-6.592.795-1.012 0-2.168-.032-4.415 0-34.442.665-69.477 22.04-83.288 59.702-14.767 40.269-8.24 81.352 7.404 125.489 1.756 4.955 6.222 8.473 11.495 8.977l10.849 2.109 25.715 2.46z" fill="#9a6a53"/><path d="m320.286 160.208c-14.479 39.517-3.14 94.322 12.069 138.069l-12.119-1.16c-5.27-.5-9.739-4.02-11.499-8.969-15.639-44.146-23.208-87.673-8.449-127.939 13.819-37.667 51.316-58.515 85.763-59.175 2.24-.04 3.4 0 4.41 0 3.13 0 6.15.12 9.069.36-32.548 2.978-66.295 23.517-79.244 58.814z" fill="#855b47"/><path d="m429.117 324.704c-3.97-1.23-6.769-4.81-7.009-8.959l-.735-12.616c.001-.001.003-.002.005-.003l-1.53-26.188h-49.746-14.019s-.707 12.045-1.385 23.773c-.304 5.232-.604 10.399-.835 14.404-.26 4.55-3.32 8.449-7.659 9.799l-13.119 4.08c.079.829.214 1.64.378 2.438.379 2.833.49 5.603 1.825 8.229 7.784 15.309 29.013 26.553 52.718 26.553 25.434 0 47.738-13.424 54.133-30.638.725-1.952.446-4.359.767-6.382 0-.01.01-.08.03-.19z" fill="#e3a76f"/><path d="m419.85 276.938h-43.17-20.6s-.7 12.04-1.38 23.77c-.06.9-.11 1.81-.16 2.7-.252 4.281-.49 8.393-.681 11.71-.26 4.55-3.32 8.45-7.66 9.8l-13.12 4.08c.08.82.22 1.64.38 2.43.38 2.84.49 5.61 1.83 8.23 1.41 2.78 3.26 5.42 5.5 7.88l1.09-.34 10.26-3.19c11.178-3.312 19.735-13.823 21.523-25.632.352-2.324 2.669-3.774 4.951-3.21 3.222.797 6.36 1.222 9.345 1.222 10.15 0 22.23-5.09 33.41-13.25l.01-.01z" fill="#d6995c"/><path d="m363.647 147.185c.706-1.342 2.612-1.441 3.427-.162 11.874 18.614 37.7 31.673 70.872 34.761l3.937.218c4.24.235 7.404 2.647 7.404 6.894l1.201 3.643v13.128c0 22.198-5.672 43.581-15.335 60.485-12.067 21.11-35.012 35.234-47.19 35.234-12.466 0-35.647-14.124-47.397-35.234-9.408-16.904-14.852-38.287-14.852-60.485 0-4.103.433-11.238 1.134-17.533.727-6.533 2.979-10.33 4.098-10.727 20.531-7.287 28.763-22.739 32.701-30.222z" fill="#e3a76f"/><path d="m479.422 340.353-5.5-1.71c-.56 1.97-1.594 2.916-1.614 2.976-9.409 31.617-43.272 52.99-84.299 52.99-44.018.039-71.374-22.231-85.683-56.045l-4.82 4.485c-10.449 3.26-15.36 10.649-15.36 21.598l-1.799 67.944c0 7.179 5.82 12.999 12.999 12.999l5.673.844h184.972c7.179 0 12.999-5.82 12.999-12.999v-69.214c.001-10.939-7.118-20.619-17.568-23.868z" fill="#ffe07d"/><path d="m311.93 356.518-1.86.58-1.82.57-.613.19c-5.124 1.588-8.617 6.328-8.617 11.692v76.888h-7c-7.18 0-13-5.82-13-13v-69.22c0-10.95 7.12-20.62 17.57-23.88l5.74-1.78c2.72 6.43 5.91 12.44 9.6 17.96z" fill="#ffd064"/><path d="m442.935 329.004c-.02.11-.03.18-.03.19-3.15 19.868-26.488 35.287-54.805 35.287-19.352 0-36.378-6.701-46.225-17.278-4.532-4.867-9.724-6.213-10.742-12.446-.01-.05.407-2.244.277-3.044l-23.94 8.718c1.647 6.535-.921 10.799 2.454 16.449 14.624 24.483 44.24 39.94 78.175 40.19 41.027 0 75.454-23.438 84.863-55.055.02-.06.4-1.4.96-3.37z" fill="#f8f7f7"/><path d="m341.88 347.198-1.09.34-28.86 8.98-1.86.58c-3.45-5.71-6.07-11.92-7.74-18.54l30.75-9.56c.13.8.22 1.37.23 1.42 1.01 6.23 4.03 11.92 8.57 16.78z" fill="#e8e8e8"/><path d="m450.491 188.906v3.633l-12.323-.689-.205-.019c-29.035-2.7-54.086-13.018-70.118-28.39-.792-.759-2.058-.705-2.747.149-1.004 1.246-2.044 2.45-3.115 3.613-7.936 8.644-18.071 14.978-29.164 18.825-1.844.633-3.931 1.369-5.971 2.105.727-6.53 1.742-12.156 2.86-12.556 20.53-7.284 30.077-22.719 34.017-30.208.699-1.341 2.608-1.444 3.428-.158 11.867 18.611 38.675 32.406 71.844 35.489l3.931.224c4.247.232 7.563 3.734 7.563 7.982z" fill="#d6995c"/></g></g></svg>