<svg id="Layer_1" enable-background="new 0 0 512.031 512.031" height="512" viewBox="0 0 512.031 512.031" width="512" xmlns="http://www.w3.org/2000/svg"><g><path d="m256.014 0c-208.65 1.923-284.517 272.117-111.4 383.143v113.857c-.173 10.033 10.282 17.566 19.743 14.23l91.657-30.552 91.657 30.552c9.463 3.336 19.917-4.199 19.743-14.23v-113.857c173.208-111.114 97.116-381.264-111.4-383.143zm81.4 476.188-76.657-25.552c-3.078-1.026-6.408-1.026-9.486 0l-76.657 25.552v-77.204c49.424 21.98 113.378 21.98 162.801 0v77.204zm-81.4-90.588c-98.039 0-177.8-79.761-177.8-177.8 9.767-235.876 345.869-235.807 355.6.001 0 98.038-79.761 177.799-177.8 177.799z"/><path d="m352.977 177.48c.209-.202.417-.407.623-.613 29.599-29.332 8.356-80.566-33.319-80.467h-19.579c-14.481-42.59-74.911-42.563-89.375 0h-3.513c-75.556.416-107.488 95.808-48.763 141.72-.209.202-.418.407-.624.613-29.597 29.333-8.355 80.566 33.32 80.467h19.579c14.481 42.59 74.911 42.563 89.375 0h3.513c75.556-.416 107.488-95.808 48.763-141.72zm-48.763 111.72h-16.066c-8.284 0-15 6.716-15 15-.942 22.73-33.33 22.723-34.268 0 0-8.284-6.716-15-15-15h-32.133c-22.718-.918-22.728-33.37 0-34.267h112.467c19.902-.793 19.887-29.215 0-30h-96.4c-65.375-2.714-65.324-95.844 0-98.533h16.066c8.284 0 15-6.716 15-15 .942-22.73 33.33-22.723 34.268 0 0 8.284 6.716 15 15 15h32.133c22.728.924 22.719 33.371 0 34.267h-112.467c-19.902.793-19.887 29.215 0 30h96.4c65.375 2.713 65.324 95.844 0 98.533z"/></g></svg>